<svg id="Smock_AlertCircle_18_N_1x" data-name="Smock_AlertCircle_18_N@1x" xmlns="http://www.w3.org/2000/svg" viewBox="0 0 18 18">
  <defs>
    <style>
      .cls-1 {
        fill: #ff13dc;
        opacity: 0;
      }

      .cls-2 {
        fill: #b3b3b3;
      }
    </style>
  </defs>
  <rect id="ToDelete" class="cls-1" width="18" height="18"/>
  <path id="Path_35957" data-name="Path 35957" class="cls-2" d="M9.05,1.1A7.95,7.95,0,1,0,17,9.05,7.95,7.95,0,0,0,9.05,1.1Zm0,14.906A6.956,6.956,0,1,1,16.006,9.05,6.956,6.956,0,0,1,9.05,16.006Z"/>
  <path id="Path_35958" data-name="Path 35958" class="cls-2" d="M7.846,12.886a1.134,1.134,0,0,1,1.116-1.152h.084a1.116,1.116,0,0,1,1.2,1.028v.122A1.091,1.091,0,0,1,9.046,14a1.09,1.09,0,0,1-1.195-.976.95.95,0,0,1,0-.138ZM10.062,4.4a.206.206,0,0,1,.1.183V5.622c0,1.4-.283,3.98-.333,4.481,0,.05-.017.1-.117.1H8.379a.11.11,0,0,1-.117-.1c-.033-.467-.3-3.031-.3-4.431V4.631a.176.176,0,0,1,.083-.183,2.885,2.885,0,0,1,1-.2,3.271,3.271,0,0,1,1.017.152Z"/>
</svg>
